<?xml version="1.0" encoding="utf-8"?>
<!-- Generator: Adobe Illustrator 24.1.3, SVG Export Plug-In . SVG Version: 6.00 Build 0)  -->
<svg version="1.1" id="Layer_1" xmlns="http://www.w3.org/2000/svg" xmlns:xlink="http://www.w3.org/1999/xlink" x="0px" y="0px"
	 viewBox="0 0 462.1 125.1" style="enable-background:new 0 0 462.1 125.1;" xml:space="preserve">
<style type="text/css">
	.st0{fill:#FFFFFF;}
	.st1{fill:none;stroke:#FFFFFF;stroke-width:15;stroke-miterlimit:10;}
	.st2{fill:#E67009;}
</style>
<g id="achter">
</g>
<g id="wit">
	<circle class="st0" cx="151.2" cy="46.1" r="3.7"/>
	<g>
		<circle class="st0" cx="151.2" cy="46.1" r="3.7"/>
		<path class="st0" d="M314.9,62.7c-0.1-6.6-4.6-11.6-11.6-11.6c-2.6,0-66.5-0.1-71.6,0c-6.8,0.2-11.7,5.3-11.6,11.6
			c0,4.3,0,5.3-0.1,8.9c-0.1,4.9-3.6,11.4-11.6,11.4c12.2,0,82.9,0,94.9,0c6.9,0,11.7-4.8,11.6-11.6C314.9,69.1,314.9,65,314.9,62.7
			z"/>
	</g>
</g>
<g id="Laag_1">
	<g>
		<path class="st0" d="M201.4,60h2.5l3.3,10.8c0.1,0.4,0.4,0.6,0.7,0.6c0.4,0,0.6-0.2,0.8-0.6l3.3-10.8h2.5L211,71.7
			c-0.2,0.6-0.6,1.2-1.1,1.6c-0.5,0.4-1.2,0.6-1.9,0.6c-0.7,0-1.3-0.2-1.9-0.6c-0.5-0.4-0.9-0.9-1.1-1.6L201.4,60z"/>
	</g>
	<path class="st1" d="M156.1,51.6"/>
	<path class="st1" d="M165.8,59.8"/>
	<path class="st2" d="M318,62.5c0-8.2-7-14.8-14.8-14.8c-2.3,0-132.2,0-132.9,0c-2.4,0-4.7,0.6-6.7,1.7c-1.2,0.4-6.5,3.3-5.8-1
		c0.2-0.7,0.4-1.4,0.4-2.2c0-3.9-3.2-7.1-7.1-7.1s-7.1,3.2-7.1,7.1s3.2,7.1,7.1,7.1c0.7,0,1.4-0.1,2.1-0.3c4.2-1.3,3.4,3.6,2.8,5.8
		c-0.1,0.5-0.4,1.5-0.5,3.7c-0.2,4.5,0,4.3,0,8.8c0,8.2,6.9,14.8,14.8,14.8c2.1,0,132.1,0,132.9,0c8.4,0,14.8-7,14.8-14.8
		C318,68.6,318,65.3,318,62.5z M151.2,49.8c-2,0-3.7-1.6-3.7-3.7c0-2,1.6-3.7,3.7-3.7c2,0,3.7,1.6,3.7,3.7
		C154.8,48.1,153.2,49.8,151.2,49.8z M314.9,71.3c0,6.9-4.7,11.6-11.6,11.6c-12,0-82.8,0-94.9,0c8,0,11.5-6.5,11.6-11.4
		c0.1-3.6,0.1-4.6,0.1-8.9c0-6.3,4.8-11.5,11.6-11.6c5-0.1,68.9,0,71.6,0c7,0.1,11.5,5,11.6,11.6C314.9,65,314.9,69.1,314.9,71.3z"
		/>
</g>
<g id="txt">
	<g>
		<g>
			<path class="st2" d="M233,62.5h-1.9c-2.3,0-4.7,1.5-4.7,4.4c0,2.9,2.3,4.4,4.7,4.4h1.9v2.4h-2.4c-3.2,0-6.8-2.4-6.8-6.8
				c0-4.3,3.6-6.8,6.8-6.8h2.4V62.5z"/>
			<path class="st2" d="M242.2,59.8c3.8,0,7,2.9,7,7.1s-3.3,7.1-7,7.1s-7-2.9-7-7.1C235.2,62.7,238.5,59.8,242.2,59.8z M242.2,71.6
				c2.6,0,4.4-1.9,4.4-4.7s-1.9-4.7-4.4-4.7c-2.6,0-4.4,1.9-4.4,4.7C237.8,69.7,239.7,71.6,242.2,71.6z"/>
			<path class="st2" d="M251.7,73.7v-7.9c0-3.6,2.5-5.9,5.8-5.9c3.3,0,5.8,2.4,5.8,5.9v7.9h-2.5v-7.9c0-2.1-1.5-3.6-3.3-3.6
				c-1.8,0-3.3,1.5-3.3,3.6v7.9H251.7z"/>
			<path class="st2" d="M269.3,69.9l-1-2l8-4.4c-0.8-0.8-1.6-1.3-3.1-1.3c-2.6,0-4.4,1.9-4.4,4.7s1.9,4.7,4.4,4.7
				c2.9,0,4-1.8,4.5-4.2l2.5,0.3c-0.3,3.6-3.2,6.3-7.1,6.3c-3.8,0-7-2.9-7-7.1s3.3-7.1,7-7.1c3.2,0,5.3,1.7,6.6,4.3L269.3,69.9z"/>
			<path class="st2" d="M282.4,71.3c2.3-0.1,4.1-2.1,4.1-4.4c0-2.3-1.7-4.3-4.1-4.4v-2.4c2.4,0.1,4.3,1.2,5.3,3.4
				c0.8-2.1,3.1-3.4,5.3-3.4v2.4c-2.3,0.1-4,2.1-4,4.4c0,2.3,1.7,4.3,4,4.4v2.4c-2.3,0-4.1-1.1-5.3-3.2c-1.1,2-2.9,3.2-5.3,3.2V71.3
				z"/>
			<path class="st2" d="M304,62.5h-4.9v7.1c0,1.3,0.6,1.7,1.9,1.7h3v2.4h-3.3c-2.5,0-4-1.7-4-4.4V56.7h2.5v3.4h4.9L304,62.5
				L304,62.5z"/>
		</g>
		<g>
			<path class="st0" d="M181.2,61.7c-1.4-1.2-3.1-1.9-5.3-1.9c-2.1,0-3.9,0.6-5.3,1.9c-1.4,1.2-2.1,2.8-2.1,4.8
				c0,1.9,0.7,3.5,2.1,4.8c1.4,1.2,3.1,1.9,5.3,1.9c1.1,0,1.9-0.2,2.2-0.3c1.2-0.4,2.1-1,2.7-1.4c0,0.1,0,0.1,0,0.1c0,0,0,0.8,0,0.8
				c0,0.9-0.4,1.6-1.3,2.2c-0.9,0.7-2.1,1.1-3.6,1.1c-0.7,0-1.6-0.1-2.6-0.3c-1-0.2-1.9-0.4-2.6-0.7l-0.7,2.2
				c0.8,0.3,1.8,0.6,2.9,0.8c1.1,0.2,2.1,0.3,3,0.3c2.2,0,4.1-0.6,5.5-1.8c0.6-0.5,1.1-1.1,1.4-1.7c0.3-0.7,0.5-1.3,0.5-2v-5.9
				C183.3,64.5,182.6,62.9,181.2,61.7z M180.8,66.5c0,0,0,0.2,0,0.5c-0.1,0.5,0,1.3-1.3,2.6c-0.1,0.1-0.5,0.5-1.2,0.8
				c-0.7,0.3-1.5,0.5-2.4,0.5c-1.4,0-2.6-0.4-3.5-1.2c-0.9-0.8-1.4-1.9-1.4-3.2c0-1.3,0.5-2.4,1.4-3.2c0.9-0.8,2.1-1.3,3.5-1.3
				c1.4,0,2.6,0.4,3.5,1.3c0.4,0.4,0.7,0.8,1,1.2C180.8,65.3,180.8,66.1,180.8,66.5z"/>
			<path class="st0" d="M198.1,61.8c-0.7-0.6-1.5-1.1-2.4-1.5s-1.8-0.5-2.8-0.5c-1,0-1.9,0.2-2.8,0.5s-1.7,0.8-2.4,1.5
				c-1.4,1.4-2.1,3.1-2.1,5.1s0.7,3.7,2.1,5c0.7,0.7,1.5,1.1,2.4,1.5s1.8,0.5,2.8,0.5c1,0,1.9-0.2,2.8-0.5c0.9-0.3,1.7-0.8,2.4-1.5
				c1.4-1.4,2.1-3,2.1-5S199.5,63.2,198.1,61.8z M196.3,70.3c-1,1-2.1,1.4-3.4,1.4s-2.5-0.5-3.4-1.4c-1-1-1.4-2.1-1.4-3.4
				s0.5-2.5,1.4-3.4c1-1,2.1-1.4,3.4-1.4s2.5,0.5,3.4,1.4c1,1,1.4,2.1,1.4,3.4C197.8,68.2,197.3,69.4,196.3,70.3z"/>
			<path class="st0" d="M201.5,60.1h2.5l3.3,10.8c0.1,0.4,0.4,0.6,0.7,0.6c0.4,0,0.6-0.2,0.8-0.6l3.3-10.8h2.5L211,71.7
				c-0.2,0.6-0.6,1.2-1.1,1.6c-0.5,0.4-1.2,0.6-1.9,0.6c-0.7,0-1.3-0.2-1.9-0.6c-0.5-0.4-0.9-0.9-1.1-1.6L201.5,60.1z"/>
		</g>
	</g>
</g>
</svg>
