<?xml version="1.0" encoding="utf-8"?>
<!-- Generator: Adobe Illustrator 24.1.3, SVG Export Plug-In . SVG Version: 6.00 Build 0)  -->
<svg version="1.1" id="Laag_1" xmlns="http://www.w3.org/2000/svg" xmlns:xlink="http://www.w3.org/1999/xlink" x="0px" y="0px"
	 viewBox="0 0 419.5 204.1" style="enable-background:new 0 0 419.5 204.1;" xml:space="preserve">
<style type="text/css">
	.st0{fill-rule:evenodd;clip-rule:evenodd;fill:#FFFFFF;}
	.st1{fill-rule:evenodd;clip-rule:evenodd;}
	.st2{fill:#FFFFFF;}
</style>
<g>
	<path class="st0" d="M375.5,148.1c21.1-0.1,35.5-14.5,35.5-35.4c0-6.7,0.1-19.2,0-26.2c-0.3-20.1-14-35.4-35.4-35.5
		c-8,0-130.4-0.3-145.7,0c-20.9,0.5-35.5,16.3-35.5,35.4c0.1,13.1,0.1,16.2-0.2,27.1c-0.5,15.1-11.1,34.7-35.5,34.7
		C195.5,148.2,338.8,148.2,375.5,148.1z"/>
	<g>
		<g>
			<path class="st1" d="M375.2,40.5c23.8,0,45,20,44.9,45c0,8.5,0,18.6,0,27c0,23.6-19.4,44.9-45,45c-2.4,0-323.1,0-329.7,0
				c-23.8,0-45-20.2-45-45c0-13.8,0-13.2,0-26.9c0-24.5,21-45,45-45C47.9,40.6,368.1,40.5,375.2,40.5z M375.2,148
				c21.1-0.1,35.5-14.5,35.5-35.4c0-6.7,0.1-19.2,0-26.2c-0.3-20.1-14-35.4-35.4-35.5c-8,0-130.4-0.3-145.7,0
				c-20.9,0.5-35.5,16.3-35.5,35.4c0.1,13.1,0.1,16.2-0.2,27.1c-0.5,15.1-11.1,34.7-35.5,34.7C195.4,148.1,338.6,148.1,375.2,148z"
				/>
		</g>
		<g>
			<path class="st2" d="M79.6,83c-4.3-3.8-9.5-5.7-16.1-5.7c-6.4,0-11.8,2-16.1,5.7c-4.3,3.8-6.3,8.7-6.3,14.6s2.1,10.8,6.3,14.6
				c4.3,3.8,9.5,5.6,16.1,5.6c3.2,0,5.6-0.7,6.7-0.9c3.8-1,6.6-2.9,8.2-4.1c0,0.2,0,0.3,0,0.3v2.5c0,2.6-1.3,4.8-3.8,6.8
				c-2.9,2.2-6.6,3.2-11,3.2c-2.3,0-4.9-0.2-7.9-0.9c-3.1-0.6-5.6-1.3-7.9-2.2l-2.1,6.6c2.5,0.9,5.5,1.7,8.8,2.3
				c3.3,0.6,6.4,0.9,9.2,0.9c6.8,0,12.4-1.8,16.7-5.4c1.8-1.5,3.2-3.2,4.3-5.3c1-2,1.5-4,1.5-6.1v-18C85.9,91.8,83.8,86.8,79.6,83z
				 M78.3,97.6c0,0,0,0.6,0,1.4c-0.2,1.6,0,3.9-3.9,7.9c-0.3,0.3-1.6,1.6-3.7,2.5c-2.2,1-4.6,1.6-7.4,1.6c-4.3,0-7.8-1.3-10.6-3.8
				c-2.8-2.5-4.3-5.7-4.3-9.7c0-3.9,1.4-7.2,4.3-9.8c2.8-2.5,6.3-3.8,10.6-3.8s7.8,1.3,10.6,3.8c1.3,1.1,2.2,2.4,2.9,3.8
				C78.2,94.2,78.4,96.4,78.3,97.6z"/>
			<path class="st2" d="M131.2,83.5c-2.1-2-4.5-3.4-7.2-4.5c-2.8-1-5.6-1.6-8.6-1.6c-3,0-5.9,0.6-8.6,1.6c-2.8,1-5.2,2.5-7.2,4.5
				c-4.4,4.1-6.6,9.3-6.6,15.4c0,6.1,2.2,11.3,6.6,15.4c2.1,2,4.5,3.6,7.2,4.6c2.8,1,5.6,1.6,8.6,1.6c3,0,5.9-0.6,8.6-1.6
				c2.8-1,5.2-2.5,7.2-4.6c4.4-4.1,6.6-9.3,6.6-15.4C137.7,92.8,135.5,87.6,131.2,83.5z M125.8,109.4c-2.9,2.9-6.4,4.4-10.5,4.4
				c-4,0-7.6-1.5-10.5-4.4c-2.9-2.9-4.4-6.4-4.4-10.5s1.5-7.6,4.4-10.5c2.9-2.9,6.4-4.4,10.5-4.4s7.6,1.5,10.5,4.4
				c2.9,2.9,4.4,6.4,4.4,10.5C130.1,103,128.8,106.5,125.8,109.4z"/>
			<path class="st2" d="M140.4,78.2h7.6l10.1,33c0.3,1.3,1,1.8,2.3,1.8c1.1-0.1,2-0.7,2.3-1.8l10.1-33h7.6l-10.8,35.5
				c-0.6,2-1.7,3.6-3.4,4.8s-3.6,2-5.7,2c-2.2,0-4-0.7-5.7-2s-2.8-2.9-3.3-4.8L140.4,78.2z"/>
		</g>
		<g>
			<path d="M228.8,78.2h1.1V85h-1.1c-2.8,0-5.2,1-7.4,3.1c-2.2,2.1-3.2,4.4-3.2,7v24.6h-7.6V95c0-4.9,1.7-9,5.2-12.2
				C219.2,79.7,223.6,78.2,228.8,78.2z"/>
			<path d="M272.1,83.5c-2.1-2-4.5-3.4-7.2-4.5c-2.8-1-5.6-1.6-8.6-1.6c-3,0-5.9,0.6-8.6,1.6c-2.8,1-5.2,2.5-7.2,4.5
				c-4.4,4.1-6.6,9.3-6.6,15.4c0,6.1,2.2,11.3,6.6,15.4c2.1,2,4.5,3.6,7.2,4.6c2.8,1,5.6,1.6,8.6,1.6c3,0,5.9-0.6,8.6-1.6
				c2.8-1,5.2-2.5,7.2-4.6c4.4-4.1,6.6-9.3,6.6-15.4C278.6,92.8,276.4,87.6,272.1,83.5z M266.8,109.4c-2.9,2.9-6.4,4.4-10.5,4.4
				c-4.1,0-7.6-1.5-10.5-4.4c-2.9-2.9-4.4-6.4-4.4-10.5s1.5-7.6,4.4-10.5c2.9-2.9,6.4-4.4,10.5-4.4s7.6,1.5,10.5,4.4
				c2.9,2.9,4.4,6.4,4.4,10.5S269.6,106.5,266.8,109.4z"/>
			<path d="M321.6,83.5c-2.1-2-4.5-3.4-7.2-4.5c-2.8-1-5.6-1.6-8.6-1.6c-3,0-5.9,0.6-8.6,1.6c-2.8,1-5.2,2.5-7.2,4.5
				c-4.4,4.1-6.6,9.3-6.6,15.4c0,6.1,2.2,11.3,6.6,15.4c2.1,2,4.5,3.6,7.2,4.6c2.8,1,5.6,1.6,8.6,1.6c4.5,0,11-2,14.8-5.4v4.7h7.6
				V99C328.1,92.8,325.9,87.6,321.6,83.5z M320.5,104.4c-1,2.8-3.6,5.2-7.8,7.5c-2.2,1.1-4.6,1.8-7,1.8c-4,0-7.6-1.5-10.5-4.4
				c-2.9-2.9-4.4-6.4-4.4-10.5c0-4,1.5-7.6,4.4-10.5c2.9-2.9,6.4-4.4,10.5-4.4s7.6,1.5,10.5,4.4c2.9,2.9,4.4,6.4,4.4,10.5V104.4z"/>
			<path d="M345,119.7h-7.6v-28c0-4,1.5-7.5,4.4-10.2c2.9-2.8,6.6-4.1,10.8-4.1c2.1,0,4.3,0.6,6.4,1.7c2.2,1.1,3.8,2.5,4.9,4.3
				c1.1-1.7,2.9-3.1,5.1-4.3c2.2-1.1,4.4-1.7,6.4-1.7c4.3,0,7.8,1.4,10.8,4.1c2.9,2.8,4.4,6.2,4.4,10.2v28h-7.6v-28
				c0-2.1-0.7-3.9-2.2-5.4c-1.5-1.5-3.3-2.2-5.4-2.2c-2.1,0-3.9,0.7-5.4,2.2c-1.5,1.5-2.2,3.2-2.2,5.4v28h-7.6v-28
				c0-2.1-0.7-3.9-2.2-5.4c-1.5-1.5-3.2-2.2-5.4-2.2c-2.2,0-3.9,0.8-5.4,2.2c-1.5,1.4-2.2,3.3-2.2,5.4L345,119.7L345,119.7z"/>
		</g>
		<path class="st2" d="M48.2,49.4V56C30.6,56.3,16,70.7,15.8,88.3H9.1C9.4,66.9,26.7,49.6,48.2,49.4L48.2,49.4z"/>
		<path class="st2" d="M48.2,63.6v6.4c-11.3,0.1-18.3,7.1-18.4,18.4h-6.4C23.5,74.8,34.6,63.7,48.2,63.6L48.2,63.6z"/>
	</g>
</g>
</svg>
