<svg width="475" height="138" viewBox="0 0 475 138" fill="none" xmlns="http://www.w3.org/2000/svg">
<g filter="url(#filter0_d_8_256)">
<path d="M158.48 56.81H157.128L157.524 58.1028L167.012 89.0859C167.565 90.9895 168.675 92.5646 170.295 93.7961C171.93 95.0396 173.803 95.67 175.89 95.67C177.962 95.67 179.836 95.0521 181.464 93.8167L181.468 93.814C183.077 92.582 184.19 91.0115 184.794 89.1011L184.794 89.1012L184.797 89.0914L194.237 58.1014L194.63 56.81H193.28H186.67H185.93L185.714 57.5177L176.946 86.2012C176.945 86.2022 176.945 86.2032 176.945 86.2042C176.838 86.5437 176.691 86.7368 176.542 86.8535C176.398 86.967 176.183 87.0618 175.846 87.0897C175.522 87.0844 175.341 87.0021 175.228 86.9116C175.106 86.8134 174.96 86.6233 174.855 86.2361L174.851 86.2218L174.846 86.2077L166.076 57.5177L165.86 56.81H165.12H158.48Z" fill="white" stroke="white" stroke-width="2"/>
<path d="M30.7749 40.0055L30.7749 40.0056L30.788 40.0014C33.5008 39.1233 35.1643 39.0249 36.1422 39.268C36.6078 39.3837 36.9005 39.5722 37.0968 39.7809C37.2972 39.9938 37.4473 40.2815 37.5404 40.6673C37.7354 41.4746 37.647 42.5609 37.3999 43.7919C37.2342 44.6173 37.0204 45.4109 36.817 46.166C36.7164 46.5395 36.6183 46.9036 36.5299 47.2575C36.0006 49.3745 35.8079 52.2217 35.7403 55.1645C35.6932 57.2115 35.7065 59.3587 35.719 61.3909C35.7246 62.2893 35.73 63.1652 35.73 64V64.0702V64.1401V64.2097V64.279V64.3481V64.4169V64.4854V64.5537V64.6216V64.6894V64.7568V64.824V64.8909V64.9575V65.0239V65.09V65.1559V65.2215V65.2868V65.3519V65.4167V65.4813V65.5456V65.6097V65.6735V65.737V65.8003V65.8634V65.9262V65.9887V66.051V66.1131V66.1749V66.2365V66.2978V66.3589V66.4198V66.4804V66.5408V66.6009V66.6608V66.7205V66.7799V66.8391V66.8981V66.9568V67.0154V67.0736V67.1317V67.1895V67.2472V67.3045V67.3617V67.4186V67.4754V67.5319V67.5882V67.6442V67.7001V67.7557V67.8111V67.8664V67.9214V67.9762V68.0307V68.0851V68.1393V68.1932V68.247V68.3005V68.3539V68.407V68.46V68.5127V68.5653V68.6176V68.6698V68.7217V68.7735V68.8251V68.8764V68.9276V68.9786V69.0294V69.0801V69.1305V69.1808V69.2308V69.2807V69.3304V69.3799V69.4293V69.4784V69.5274V69.5762V69.6248V69.6733V69.7216V69.7697V69.8176V69.8654V69.913V69.9604V70.0077V70.0548V70.1017V70.1485V70.1951V70.2416V70.2879V70.334V70.38V70.4258V70.4714V70.5169V70.5623V70.6075V70.6525V70.6974V70.7421V70.7867V70.8312V70.8755V70.9196V70.9637V71.0075V71.0513V71.0948V71.1383V71.1816V71.2248V71.2678V71.3107V71.3535V71.3961V71.4386V71.481V71.5232V71.5653V71.6073V71.6492V71.6909V71.7325V71.774V71.8153V71.8566V71.8977V71.9387V71.9796V72.0203V72.061V72.1015V72.142V72.1823V72.2225V72.2625V72.3025V72.3424V72.3822V72.4218V72.4614V72.5008V72.5402V72.5794V72.6185V72.6576V72.6965V72.7354V72.7741V72.8128V72.8514V72.8898V72.9282V72.9665V73.0047V73.0428V73.0808V73.1188V73.1566V73.1944V73.2321V73.2697V73.3072V73.3446V73.382V73.4193V73.4565V73.4936V73.5307V73.5677V73.6046V73.6414V73.6782V73.7149V73.7515V73.7881V73.8246V73.861V73.8974V73.9337V73.97V74.0062V74.0423V74.0784V74.1144V74.1504V74.1863V74.2221V74.2579V74.2937V74.3294V74.365V74.4006V74.4362V74.4717V74.5071V74.5426V74.5779V74.6133V74.6486V74.6838V74.719V74.7542V74.7893V74.8245V74.8595V74.8946V74.9296V74.9646V74.9995V75.0344V75.0693V75.1042V75.139V75.1738V75.2086V75.2434V75.2781V75.3129V75.3476V75.3823V75.4169V75.4516V75.4862V75.5209V75.5555V75.5901V75.6247V75.6593V75.6939V75.7284V75.763V75.7976V75.8321V75.8667V75.9013V75.9358V75.9704V76.0049V76.0395V76.074V76.1086V76.1432V76.1778V76.2124V76.247V76.2816V76.3162V76.3508V76.3855V76.4202V76.4548V76.4895V76.5243V76.559V76.5937V76.6285V76.6633V76.6981V76.733V76.7679V76.8028V76.8377V76.8727V76.9076V76.9427V76.9777V77.0128V77.0479V77.0831V77.1183V77.1535V77.1888V77.2241V77.2594V77.2948V77.3302V77.3657V77.4013V77.4368V77.4724V77.5081V77.5438V77.5796V77.6154V77.6513V77.6872V77.7232V77.7592V77.7953V77.8315V77.8677V77.904V77.9403V77.9767V78.0132V78.0497V78.0863V78.1229V78.1597V78.1965V78.2333V78.2703V78.3073V78.3444V78.3815V78.4188V78.4561V78.4935V78.5309V78.5685V78.6061V78.6438V78.6816V78.7195V78.7575V78.7955V78.8337V78.8719V78.9102V78.9487V78.9872V79.0258V79.0645V79.1032V79.1421V79.1811V79.2202V79.2594V79.2987V79.338V79.3775V79.4171V79.4568V79.4966V79.5365V79.5765V79.6167V79.6569V79.6973V79.7377V79.7783V79.819V79.8598V79.9007V79.9418V79.9829V80.0242V80.0656V80.1071V80.1488V80.1906V80.2325V80.2745V80.3167V80.359V80.4014V80.4439V80.4866V80.5294V80.5724V80.6154V80.6587V80.702V80.7455V80.7892V80.8329V80.8769V80.9209V80.9651V81.0095V81.054V81.0987V81.1434V81.1884V81.2335V81.2787V81.3242V81.3697V81.4154V81.4613V81.5073V81.5535V81.5999V81.6464V81.693V81.7399V81.7869V81.834V81.8813V81.9288V81.9765V82.0243V82.0723V82.1205V82.1689V82.2174V82.2661V82.3149V82.364V82.4132V82.4626V82.5122V82.562V82.6119V82.6621V82.7124V82.7629V82.8136V82.8645V82.9155V82.9668V83.0182V83.0699V83.1217V83.1738V83.226V83.2784V83.331V83.3838V83.4369V83.4901V83.5435V83.5971V83.651V83.705V83.7592V83.8137V83.8683V83.9232V83.9783V84.0336V84.0891V84.1448V84.2007V84.2569V84.3133V84.3698V84.4266V84.4837V84.5409V84.5984V84.6561V84.714V84.7721V84.8305V84.8891V84.9479V85.007V85.0663V85.1258V85.1856V85.2456V85.3058V85.3663V85.427V85.4879V85.5491V85.6105V85.6722V85.7341V85.7962V85.8586V85.9213V85.9842V86.0473V86.1107V86.1744V86.2383V86.3024V86.3668V86.4315V86.4964V86.5616V86.627V86.6927V86.7586V86.8249V86.8913V86.9581V87.0251V87.0924V87.1599V87.2277V87.2958V87.3642V87.4328V87.5017V87.5708V87.6403V87.71V87.78C35.73 109.995 54.6401 128.05 75.92 128.05C78.7351 128.05 166.44 128.043 253.704 128.035L428.84 128.02H428.842C451.809 127.979 469.1 108.895 469.1 87.82V87.8173C469.095 86.0082 469.089 84.1046 469.082 82.1518C469.063 76.2431 469.042 69.884 469.05 64.3318C469.091 41.9407 450.095 24.06 428.86 24.06C425.76 24.06 338.012 24.0675 250.799 24.075L75.94 24.09C69.4939 24.09 63.3096 25.7408 57.8127 28.6192C57.3892 28.7673 56.8202 29.0044 56.1896 29.2686C56.1378 29.2903 56.0855 29.3122 56.0326 29.3344C55.3841 29.6063 54.6478 29.915 53.8557 30.2258C52.1326 30.9019 50.2064 31.5629 48.4696 31.8496C46.6749 32.1459 45.3762 31.992 44.6392 31.4036C43.9881 30.8839 43.4382 29.7251 43.9124 27.053C44.5294 25.1288 44.88 23.0772 44.88 20.94C44.88 9.92772 35.9523 1 24.94 1C13.9277 1 5 9.92772 5 20.94C5 31.9523 13.9277 40.88 24.94 40.88C26.9707 40.88 28.9301 40.5748 30.7749 40.0055ZM188.623 117.77C193.692 115.903 197.742 112.861 200.838 109.212C206.025 103.099 208.509 95.3163 208.7 88.5783C208.963 79.2705 208.951 76.502 208.904 65.8102L208.9 64.9356C208.832 48.7971 221.191 35.4876 238.833 35.0897C252.165 34.7901 421.87 34.9899 428.851 35.05L428.852 35.05C437.891 35.1181 445.258 38.3659 450.404 43.6783C455.556 48.9958 458.539 56.4415 458.69 64.9977L458.69 64.9995C458.77 69.0964 458.757 75.3129 458.745 80.722C458.739 83.4076 458.733 85.8942 458.74 87.8235C458.774 96.6859 455.73 104.118 450.501 109.34C445.271 114.563 437.789 117.641 428.827 117.67C399.711 117.761 240.732 117.769 188.623 117.77ZM24.92 29.67C20.0623 29.67 16.13 25.7377 16.13 20.88C16.13 16.0223 20.0623 12.09 24.92 12.09C29.7777 12.09 33.71 16.0223 33.71 20.88C33.71 25.7377 29.7777 29.67 24.92 29.67Z" fill="#E67009" stroke="white" stroke-width="2"/>
</g>
<path d="M24.97 30.69C30.3769 30.69 34.76 26.3069 34.76 20.9C34.76 15.4931 30.3769 11.11 24.97 11.11C19.5631 11.11 15.18 15.4931 15.18 20.9C15.18 26.3069 19.5631 30.69 24.97 30.69Z" fill="white"/>
<path d="M24.96 30.67C30.3668 30.67 34.75 26.2869 34.75 20.88C34.75 15.4731 30.3668 11.09 24.96 11.09C19.5531 11.09 15.17 15.4731 15.17 20.88C15.17 26.2869 19.5531 30.67 24.96 30.67Z" fill="white"/>
<path d="M459.73 64.97C459.41 47.42 447.47 34.18 428.9 34.04C421.93 33.99 252.21 33.78 238.85 34.08C220.67 34.49 207.87 48.25 207.94 64.93C207.99 76.36 208.01 79.01 207.74 88.54C207.37 101.6 198.07 118.76 176.83 118.76C209.1 118.76 396.96 118.76 428.87 118.66C447.26 118.6 459.85 106.01 459.78 87.81C459.76 82.03 459.85 71.12 459.73 64.97Z" fill="white"/>
<path d="M242.36 64.39H237.26C231.04 64.39 224.89 68.44 224.89 76.09C224.89 83.74 231.04 87.79 237.26 87.79H242.36V94.09H236.06C227.66 94.09 217.99 87.64 217.99 76.09C217.99 64.54 227.66 58.09 236.06 58.09H242.36V64.39Z" fill="#E67009"/>
<path d="M266.79 57.34C276.76 57.34 285.46 64.99 285.46 76.09C285.46 87.19 276.76 94.84 266.79 94.84C256.82 94.84 248.12 87.19 248.12 76.09C248.11 64.99 256.81 57.34 266.79 57.34ZM266.79 88.53C273.62 88.53 278.56 83.43 278.56 76.08C278.56 68.73 273.61 63.63 266.79 63.63C259.97 63.63 255.02 68.73 255.02 76.08C255.01 83.43 259.96 88.53 266.79 88.53Z" fill="#E67009"/>
<path d="M292.01 94.08V73.08C292.01 63.63 298.61 57.33 307.38 57.33C316.15 57.33 322.75 63.63 322.75 73.08V94.08H316.15V73.08C316.15 67.53 312.1 63.63 307.38 63.63C302.66 63.63 298.61 67.53 298.61 73.08V94.08H292.01Z" fill="#E67009"/>
<path d="M338.64 84.05L335.94 78.8L357.24 67.09C354.99 64.84 353.12 63.64 349.07 63.64C342.25 63.64 337.3 68.74 337.3 76.09C337.3 83.44 342.25 88.54 349.07 88.54C356.87 88.54 359.79 83.89 361.14 77.29L367.81 78.12C367.06 87.64 359.41 94.84 349.06 94.84C339.09 94.84 330.39 87.19 330.39 76.09C330.39 64.99 339.09 57.34 349.06 57.34C357.46 57.34 363.08 61.76 366.46 68.74L338.64 84.05Z" fill="#E67009"/>
<path d="M373.36 87.78C379.58 87.48 384.16 82.31 384.16 76.08C384.16 69.86 379.58 64.68 373.36 64.38V58.08C379.66 58.46 384.69 61.31 387.38 67.08C389.41 61.38 395.63 58.08 401.48 58.08V64.38C395.33 64.68 390.76 69.85 390.76 76.08C390.76 82.31 395.34 87.48 401.48 87.78V94.08C395.41 94.08 390.46 91.08 387.38 85.68C384.46 91.08 379.81 94.08 373.36 94.08V87.78Z" fill="#E67009"/>
<path d="M430.93 64.39H418.03V83.29C418.03 86.66 419.61 87.79 422.98 87.79H430.93V94.09H422.08C415.33 94.09 411.43 89.59 411.43 82.47V49.09H418.03V58.09H430.93V64.39Z" fill="#E67009"/>
<path d="M104.69 62.26C101.02 58.95 96.36 57.29 90.73 57.29C85.09 57.29 80.44 58.95 76.77 62.26C73.1 65.57 71.26 69.81 71.26 74.97C71.26 80.11 73.1 84.33 76.77 87.62C80.44 90.91 85.09 92.55 90.73 92.55C93.54 92.55 95.67 91.99 96.54 91.74C99.85 90.79 102.24 89.21 103.63 88.12C103.63 88.32 103.63 88.43 103.63 88.44C103.63 88.44 103.63 90.62 103.63 90.63C103.63 92.9 102.52 94.86 100.29 96.52C97.82 98.38 94.63 99.32 90.73 99.32C88.75 99.32 86.44 99.07 83.79 98.56C81.14 98.06 78.85 97.43 76.92 96.69L75.07 102.41C77.27 103.24 79.82 103.91 82.72 104.41C85.62 104.92 88.29 105.17 90.74 105.17C96.69 105.17 101.52 103.61 105.22 100.49C106.79 99.16 108.02 97.64 108.89 95.91C109.77 94.18 110.2 92.42 110.2 90.62V74.98C110.19 69.81 108.36 65.58 104.69 62.26ZM103.62 74.98C103.62 75 103.62 75.47 103.62 76.23C103.4 77.61 103.62 79.68 100.24 83.1C99.96 83.39 98.87 84.48 97.09 85.34C95.2 86.25 93.08 86.7 90.72 86.7C86.99 86.7 83.91 85.6 81.47 83.4C79.03 81.2 77.82 78.39 77.82 74.98C77.82 71.54 79.04 68.72 81.49 66.49C83.94 64.27 87.01 63.16 90.72 63.16C94.42 63.16 97.5 64.27 99.95 66.49C101.03 67.47 101.87 68.57 102.48 69.79C103.53 71.91 103.65 73.88 103.62 74.98Z" fill="white"/>
<path d="M149.59 62.62C147.77 60.91 145.68 59.6 143.31 58.68C140.94 57.76 138.44 57.3 135.82 57.3C133.19 57.3 130.7 57.76 128.33 58.68C125.96 59.6 123.87 60.92 122.05 62.62C118.26 66.23 116.36 70.72 116.36 76.06C116.36 81.4 118.26 85.87 122.05 89.47C123.87 91.2 125.96 92.52 128.33 93.44C130.7 94.36 133.2 94.82 135.82 94.82C138.45 94.82 140.95 94.36 143.31 93.44C145.68 92.52 147.77 91.2 149.59 89.47C153.38 85.88 155.28 81.41 155.28 76.06C155.28 70.71 153.38 66.23 149.59 62.62ZM144.92 85.16C142.39 87.69 139.36 88.95 135.81 88.95C132.26 88.95 129.23 87.69 126.7 85.16C124.17 82.63 122.91 79.6 122.91 76.05C122.91 72.5 124.17 69.47 126.7 66.94C129.23 64.41 132.26 63.15 135.81 63.15C139.36 63.15 142.39 64.41 144.92 66.94C147.45 69.47 148.71 72.5 148.71 76.05C148.71 79.6 147.45 82.64 144.92 85.16Z" fill="white"/>
<path d="M158.54 58H165.18L173.94 86.66C174.23 87.72 174.89 88.24 175.93 88.24C176.96 88.17 177.64 87.64 177.95 86.66L186.69 58H193.29L183.86 88.95C183.32 90.66 182.33 92.06 180.88 93.16C179.43 94.26 177.78 94.81 175.91 94.81C174.05 94.81 172.38 94.25 170.93 93.14C169.47 92.03 168.49 90.63 168 88.95L158.54 58Z" fill="white"/>
<defs>
<filter id="filter0_d_8_256" x="0" y="0" width="474.1" height="137.05" filterUnits="userSpaceOnUse" color-interpolation-filters="sRGB">
<feFlood flood-opacity="0" result="BackgroundImageFix"/>
<feColorMatrix in="SourceAlpha" type="matrix" values="0 0 0 0 0 0 0 0 0 0 0 0 0 0 0 0 0 0 127 0" result="hardAlpha"/>
<feOffset dy="4"/>
<feGaussianBlur stdDeviation="2"/>
<feComposite in2="hardAlpha" operator="out"/>
<feColorMatrix type="matrix" values="0 0 0 0 0 0 0 0 0 0 0 0 0 0 0 0 0 0 0.25 0"/>
<feBlend mode="normal" in2="BackgroundImageFix" result="effect1_dropShadow_8_256"/>
<feBlend mode="normal" in="SourceGraphic" in2="effect1_dropShadow_8_256" result="shape"/>
</filter>
</defs>
</svg>
